<?xml version="1.0" ?><!DOCTYPE svg  PUBLIC '-//W3C//DTD SVG 1.1//EN'  'http://www.w3.org/Graphics/SVG/1.1/DTD/svg11.dtd'><svg enable-background="new 0 0 24 24" height="24px" id="Layer_1" version="1.1" viewBox="0 0 24 24" width="24px" xml:space="preserve" xmlns="http://www.w3.org/2000/svg" xmlns:xlink="http://www.w3.org/1999/xlink"><g><rect height="4" width="3" x="12" y="2"/><rect height="1" width="8" x="8" y="16"/><rect height="1" width="8" x="8" y="19"/><path d="M19,0H1C0.4,0,0,0.4,0,1v22c0,0.6,0.4,1,1,1h22c0.6,0,1-0.4,1-1V5L19,0z M6,1h10v6H6V1z M18,22H6v-8h12V22z M22,22h-3v-9H5   v9H2V2h3v6h12V2h1.5L22,5.5V22z"/></g></svg>