<?xml version="1.0" ?><!DOCTYPE svg  PUBLIC '-//W3C//DTD SVG 1.1//EN'  'http://www.w3.org/Graphics/SVG/1.1/DTD/svg11.dtd'><svg height="32px" id="Layer_1" style="enable-background:new 0 0 32 32;" version="1.1" viewBox="0 0 32 32" width="32px" xml:space="preserve" xmlns="http://www.w3.org/2000/svg" xmlns:xlink="http://www.w3.org/1999/xlink"><g transform="translate(240 48)"><path d="M-222-45.852V-48h-4v2.148c-7.336,0.98-13,7.246-13,14.852c0,8.285,6.715,15,15,15c8.285,0,15-6.715,15-15   C-209-38.604-214.664-44.871-222-45.852z M-223-18.051V-20h-2v1.949c-6.371-0.488-11.461-5.58-11.949-11.949H-235v-2h-1.949   c0.514-6.701,6.119-12,12.949-12c6.83,0,12.436,5.299,12.949,12H-213v2h1.949C-211.539-23.631-216.631-18.539-223-18.051z    M-225.02-38H-226v-5h1.275c0,0,1.465,2.773,1.756,3.465V-43H-222v5h-1.148c0,0-1.632-3.109-1.871-3.695L-225.02-38L-225.02-38z    M-222.117-30.398l4.48,5.764l-5.762-4.479c-0.688,0.221-1.469,0.076-2.016-0.471c-0.547-0.547-0.688-1.328-0.469-2.016   l-4.48-5.763l5.762,4.479c0.688-0.219,1.469-0.078,2.016,0.469S-221.896-31.086-222.117-30.398z"/></g></svg>